<svg width="16" height="16" viewBox="0 0 16 16" fill="none" xmlns="http://www.w3.org/2000/svg">
<g clip-path="url(#clip0_437_209)">
<path d="M7.94018 0C8.23779 0.00507169 8.52942 0.0844158 8.78857 0.230825L14.1943 3.28392C14.4119 3.407 14.6045 3.56984 14.7621 3.76397L14.7675 3.76078L14.848 3.87894L14.8575 3.89248L14.9581 4.04073L14.9509 4.04503C15.0844 4.28822 15.1579 4.55362 15.1605 4.82361V11.03C15.1635 11.3436 15.0838 11.6523 14.9296 11.9253C14.7754 12.1983 14.5521 12.4259 14.2821 12.5853L8.93503 15.7403C8.71328 15.8712 8.46576 15.9524 8.20955 15.9783L8.2095 15.9863L7.86751 15.9891L7.86768 15.9806C7.61497 15.9579 7.36999 15.8816 7.14902 15.7569L1.46936 12.5488C1.08345 12.3315 0.843343 11.9244 0.838867 11.4795V4.90669C0.842056 4.67485 0.882448 4.45113 0.958923 4.24537L0.952546 4.24173L1.0989 3.93589L1.10717 3.94048C1.24322 3.71899 1.43146 3.53421 1.65543 3.40229L7.00256 0.248C7.27255 0.0885072 7.57979 0.00296923 7.89336 0L7.94018 0ZM1.25845 4.41298L1.24648 4.45102C1.19892 4.6085 1.17537 4.77863 1.17716 4.95597V11.4778C1.17863 11.6361 1.22176 11.7911 1.30223 11.9274C1.38269 12.0637 1.49765 12.1764 1.63551 12.2541L7.3154 15.4624C7.48367 15.5573 7.66924 15.6177 7.86119 15.6399L7.87299 15.641L7.87434 15.3651L7.87545 14.2078L7.87366 12.8942L7.866 12.8934C7.74849 12.8779 7.63409 12.8443 7.52687 12.7938L7.48692 12.774L7.45162 12.7549L4.01067 10.8114C3.88562 10.7408 3.78136 10.6386 3.70841 10.515C3.63522 10.3909 3.59605 10.2496 3.59484 10.1056L3.5949 6.15508C3.59366 6.02937 3.60944 5.90685 3.64189 5.79133L3.65291 5.75441L1.25845 4.41298ZM14.6603 4.21869L12.2995 5.62864L12.3047 5.63944C12.363 5.7652 12.397 5.89908 12.4035 6.0358L12.4046 6.07317L12.4045 9.83261C12.4064 10.0343 12.3552 10.2329 12.2561 10.4085C12.1569 10.5841 12.0132 10.7304 11.8395 10.8329L8.60027 12.7441C8.4888 12.8099 8.36692 12.8562 8.23987 12.8811L8.21207 12.8861L8.21263 13.1534L8.21375 14.7018L8.21151 15.6112L8.21117 15.6375L8.26175 15.6304C8.42376 15.6041 8.58008 15.5502 8.72396 15.4712L8.76312 15.449L14.1103 12.294C14.3291 12.1648 14.5101 11.9803 14.6351 11.759C14.7602 11.5372 14.8248 11.2863 14.8221 11.0317L14.8223 4.82523C14.8204 4.63345 14.772 4.44185 14.6826 4.26176L14.6603 4.21869ZM7.77593 4.84392C7.7248 4.85902 7.67557 4.88039 7.62964 4.90747L5.45828 6.18836C5.39516 6.22553 5.3397 6.27439 5.29487 6.33231C5.2686 6.36624 5.24604 6.40289 5.22757 6.44162L5.21587 6.47071C5.18828 6.53618 5.17074 6.60543 5.16385 6.67614C5.16133 6.70378 5.16004 6.73175 5.16032 6.76006V9.40934C5.16114 9.48566 5.18195 9.56042 5.22069 9.62618C5.25945 9.69189 5.31487 9.7462 5.38136 9.78361L7.68793 11.0865C7.78799 11.143 7.90113 11.1723 8.01604 11.1713L8.04066 11.1703L8.04083 11.8836L8.04239 12.5641L8.04066 11.1703C8.14781 11.1658 8.25225 11.1348 8.34466 11.0803L10.516 9.79922C10.6153 9.74064 10.6974 9.65698 10.7541 9.55664C10.7632 9.54053 10.7712 9.52397 10.779 9.50708C10.8192 9.41936 10.8397 9.32387 10.8389 9.22736L10.839 6.70652C10.8385 6.66107 10.8325 6.61584 10.8212 6.5718C10.8139 6.5426 10.8043 6.51399 10.7927 6.48621C10.78 6.45587 10.765 6.42655 10.7478 6.39849L10.7379 6.3826L10.7277 6.36694C10.7119 6.34377 10.6948 6.32154 10.6765 6.30036C10.621 6.23655 10.555 6.18263 10.4814 6.14092L8.28625 4.9012C8.20946 4.85769 8.12466 4.83018 8.03695 4.82034C7.94925 4.81049 7.86045 4.81851 7.77593 4.84392ZM7.8966 0.338182C7.64242 0.340615 7.39337 0.409983 7.17453 0.539301L1.8274 3.69354C1.66719 3.78781 1.53001 3.9166 1.42583 4.07055L1.40256 4.10607L3.80256 5.44985L3.82745 5.41589C3.90045 5.32054 3.98959 5.23872 4.09084 5.17415L4.12239 5.1548L7.36172 3.24375C7.53533 3.14113 7.73292 3.08608 7.93458 3.08412C8.13624 3.08217 8.33485 3.13338 8.51042 3.23262L11.7853 5.08246C11.8984 5.14644 12.0011 5.22732 12.0898 5.32229L12.1118 5.34663L14.468 3.93941L14.4421 3.90993C14.3326 3.78906 14.206 3.68491 14.0663 3.60084L14.0279 3.57835L8.62225 0.525371C8.40103 0.400331 8.15071 0.335731 7.8966 0.338182Z" fill="#4285F4"/>
</g>
<defs>
<clipPath id="clip0_437_209">
<rect width="16" height="16" fill="white"/>
</clipPath>
</defs>
</svg>
